%TF.GenerationSoftware,Altium Limited,Altium Designer,26.9.1 (10)*%
G04 Layer_Color=65535*
G04 Board_Origin=0|0*
%FSLAX45Y45*%
%MOMM*%
%TF.SameCoordinates,C36C2D22-AD09-4E02-BB68-3F62A754FCC7*%
%TF.FilePolarity,Positive*%
%TF.FileFunction,Legend,Top*%
%TF.Part,Single*%
G01*
G75*
%TA.AperFunction,NonConductor*%
%ADD51C,0.25000*%
%ADD52C,0.20000*%
D51*
X11532500Y6590000D02*
G03*
X11532500Y6590000I-12500J0D01*
G01*
X9150000Y8932500D02*
G03*
X9150000Y8932500I-12500J0D01*
G01*
X11295000Y7702500D02*
G03*
X11295000Y7702500I-12500J0D01*
G01*
X8577500Y7100000D02*
G03*
X8577500Y7100000I-12500J0D01*
G01*
X10666499Y8953499D02*
G03*
X10666499Y8953499I-12500J0D01*
G01*
X11172500Y6922000D02*
G03*
X11172500Y6922000I-12500J0D01*
G01*
X9192500Y6537500D02*
G03*
X9192500Y6537500I-12500J0D01*
G01*
X9214000Y8054100D02*
G03*
X9214000Y8054100I-12500J0D01*
G01*
X10357500Y7470000D02*
G03*
X10357500Y7470000I-12500J0D01*
G01*
D52*
X11582500Y6405000D02*
Y6485000D01*
X11457500Y6405000D02*
Y6485000D01*
X9627500Y8345000D02*
Y8445000D01*
X9492500Y8345000D02*
Y8445000D01*
X8717500Y8710000D02*
Y8815000D01*
X8581933Y8710533D02*
Y8815533D01*
X9195000Y8852500D02*
X9227500D01*
Y8820000D02*
Y8852500D01*
X8797500D02*
X8830000D01*
X8797500Y8820000D02*
Y8852500D01*
Y8422500D02*
Y8455000D01*
Y8422500D02*
X8830000D01*
X9195000D02*
X9227500D01*
Y8455000D01*
X9930000Y7122500D02*
X10035000D01*
X9930533Y7258067D02*
X10035533D01*
X11332500Y7430500D02*
Y7477500D01*
Y8192500D02*
Y8239500D01*
X11600000D01*
X11332500Y7430500D02*
X11600000D01*
X11049393Y7304175D02*
Y7590388D01*
X11235606Y7304175D02*
Y7590388D01*
X8635000Y7005000D02*
X8965000D01*
X8635000Y7355000D02*
X8965000D01*
X10031699Y8288699D02*
X11022299D01*
X10031699D02*
Y8898299D01*
X11022299D01*
Y8288699D02*
Y8898299D01*
X11135250Y6417250D02*
Y6767750D01*
X10484750Y6417250D02*
X11135250D01*
X10484750D02*
Y6767750D01*
X11135250D01*
X8906966Y7381933D02*
X9011966D01*
X8907500Y7517500D02*
X9012500D01*
X9208067Y7516967D02*
Y7621967D01*
X9072500Y7517500D02*
Y7622500D01*
X11452500Y6680000D02*
Y6780000D01*
X11587500Y6680000D02*
Y6780000D01*
X10995606Y7304175D02*
Y7590388D01*
X10809393Y7304175D02*
Y7590388D01*
X8955000Y6247500D02*
Y6370000D01*
X9082500Y5965000D02*
X9902500D01*
X10030000Y6247500D02*
Y6370000D01*
X9872500D02*
X10030000D01*
X8955000D02*
X9112500D01*
X9266500Y7329100D02*
X9309000D01*
X9266500D02*
Y7371600D01*
X9964000Y7329100D02*
X10006500D01*
Y7371600D01*
Y8026600D02*
Y8069100D01*
X9964000D02*
X10006500D01*
X9266500D02*
X9309000D01*
X9266500Y8026600D02*
Y8069100D01*
X9542500Y8655000D02*
X9642500D01*
X9542500Y8520000D02*
X9642500D01*
X9732500D02*
X9832500D01*
X9732500Y8655000D02*
X9832500D01*
X10160000Y7532500D02*
X10240000D01*
X10160000Y7407500D02*
X10240000D01*
X10150000Y7242500D02*
X10250000D01*
X10150000Y7377500D02*
X10250000D01*
X9291934Y8460533D02*
Y8565533D01*
X9427500Y8460000D02*
Y8565000D01*
X8581934Y8520533D02*
Y8625533D01*
X8717500Y8520000D02*
Y8625000D01*
X8946967Y8214433D02*
X9051967D01*
X8947501Y8350000D02*
X9052501D01*
X10740000Y8932500D02*
X10840000D01*
X10740000Y9067500D02*
X10840000D01*
X8880000Y7542500D02*
X8980000D01*
X8880000Y7677500D02*
X8980000D01*
X10398033Y9068067D02*
X10503033D01*
X10397500Y8932500D02*
X10502500D01*
X9571893Y7071893D02*
X9858107D01*
X9571893Y7258106D02*
X9858107D01*
X9336967Y8131933D02*
X9441967D01*
X9337500Y8267500D02*
X9442500D01*
X10061933Y7923033D02*
Y8028033D01*
X10197500Y7922500D02*
Y8027500D01*
X9071933Y7868033D02*
Y7973033D01*
X9207500Y7867500D02*
Y7972500D01*
X9003106Y7796893D02*
Y8083107D01*
X8816893Y7796893D02*
Y8083107D01*
X8688033Y7518066D02*
X8793033D01*
X8687500Y7382500D02*
X8792500D01*
%TF.MD5,3a3e346e779b9fc15c73ead47bd9d604*%
M02*
