%TF.GenerationSoftware,Altium Limited,Altium Designer,26.9.1 (10)*%
G04 Layer_Color=8388736*
G04 Board_Origin=0|0*
%FSLAX45Y45*%
%MOMM*%
%TF.SameCoordinates,C36C2D22-AD09-4E02-BB68-3F62A754FCC7*%
%TF.FilePolarity,Negative*%
%TF.FileFunction,Soldermask,Top*%
%TF.Part,Single*%
G01*
G75*
%TA.AperFunction,SMDPad,CuDef*%
%ADD13R,0.50000X0.70000*%
%ADD14R,0.60000X0.50000*%
%TA.AperFunction,BGAPad,CuDef*%
%ADD15C,0.78700*%
%TA.AperFunction,SMDPad,CuDef*%
%ADD16R,0.50000X0.50000*%
%TA.AperFunction,ConnectorPad*%
%ADD17R,1.38000X0.45000*%
%TA.AperFunction,SMDPad,CuDef*%
%ADD18R,0.50000X0.50000*%
%ADD19O,0.80000X0.25000*%
%ADD20O,0.25000X0.80000*%
%ADD21R,1.06213X1.25776*%
%ADD22R,0.50000X0.60000*%
%ADD23O,0.87213X1.00429*%
%ADD24R,1.55000X1.55000*%
%ADD25R,1.55000X1.55000*%
%TA.AperFunction,ConnectorPad*%
%ADD26R,0.60000X1.70000*%
%TA.AperFunction,SMDPad,CuDef*%
%ADD27R,1.25776X1.06213*%
%ADD28R,0.35000X0.80000*%
%ADD29R,2.60000X2.70000*%
%ADD31R,5.60000X5.60000*%
%ADD32R,1.40000X1.15000*%
G04:AMPARAMS|DCode=33|XSize=1.00429mm|YSize=0.87213mm|CornerRadius=0.43606mm|HoleSize=0mm|Usage=FLASHONLY|Rotation=270.000|XOffset=0mm|YOffset=0mm|HoleType=Round|Shape=RoundedRectangle|*
%AMROUNDEDRECTD33*
21,1,1.00429,0.00000,0,0,270.0*
21,1,0.13216,0.87213,0,0,270.0*
1,1,0.87213,0.00000,-0.06608*
1,1,0.87213,0.00000,0.06608*
1,1,0.87213,0.00000,0.06608*
1,1,0.87213,0.00000,-0.06608*
%
%ADD33ROUNDEDRECTD33*%
G04:AMPARAMS|DCode=34|XSize=1.00429mm|YSize=3.18213mm|CornerRadius=0.43687mm|HoleSize=0mm|Usage=FLASHONLY|Rotation=270.000|XOffset=0mm|YOffset=0mm|HoleType=Round|Shape=RoundedRectangle|*
%AMROUNDEDRECTD34*
21,1,1.00429,2.30840,0,0,270.0*
21,1,0.13056,3.18213,0,0,270.0*
1,1,0.87373,-1.15420,-0.06528*
1,1,0.87373,-1.15420,0.06528*
1,1,0.87373,1.15420,0.06528*
1,1,0.87373,1.15420,-0.06528*
%
%ADD34ROUNDEDRECTD34*%
%TA.AperFunction,ConnectorPad*%
%ADD35R,1.30000X1.65000*%
%ADD36R,1.90000X1.80000*%
%ADD37R,1.90000X1.00000*%
%ADD38R,1.55000X1.42500*%
%TA.AperFunction,SMDPad,CuDef*%
%ADD39R,0.95000X0.70000*%
%TA.AperFunction,ConnectorPad*%
%ADD40R,1.00000X2.70000*%
%TA.AperFunction,SMDPad,CuDef*%
%ADD41R,0.70000X0.50000*%
%TA.AperFunction,ViaPad*%
%ADD46C,0.50000*%
%ADD47C,1.52400*%
%TA.AperFunction,ComponentPad*%
%ADD48C,0.99100*%
%TA.AperFunction,ViaPad*%
%ADD50C,0.70000*%
%TA.AperFunction,SMDPad,CuDef*%
%ADD53R,1.05320X0.55320*%
%TA.AperFunction,ViaPad*%
%ADD54C,1.00400*%
D13*
X11520000Y6500000D02*
D03*
Y6390000D02*
D03*
D14*
X9560000Y8345000D02*
D03*
Y8445000D02*
D03*
X11520000Y6780000D02*
D03*
Y6680000D02*
D03*
D15*
X10399999Y8656999D02*
D03*
X10653999D02*
D03*
X10526999Y8529999D02*
D03*
X10653999D02*
D03*
X10526999Y8656999D02*
D03*
X10399999Y8529999D02*
D03*
D16*
X10400000Y9000000D02*
D03*
X9440000Y8200000D02*
D03*
X9932500Y7190000D02*
D03*
X9050000Y8282500D02*
D03*
X8690000Y7450000D02*
D03*
X9010000D02*
D03*
X9340000Y8200000D02*
D03*
X10032500Y7190000D02*
D03*
X8950001Y8282500D02*
D03*
X8790000Y7450000D02*
D03*
X8910000D02*
D03*
X10500000Y9000000D02*
D03*
D17*
X11436500Y7965000D02*
D03*
Y7705000D02*
D03*
Y7770000D02*
D03*
Y7835000D02*
D03*
Y7900000D02*
D03*
D18*
X10130000Y7925000D02*
D03*
X9360000Y8462500D02*
D03*
X8650000Y8712500D02*
D03*
X8650000Y8522500D02*
D03*
X9140000Y7870000D02*
D03*
Y7620000D02*
D03*
X8650000Y8812500D02*
D03*
X10130000Y8025000D02*
D03*
X9140000Y7970000D02*
D03*
Y7520000D02*
D03*
X9360000Y8562500D02*
D03*
X8650000Y8622500D02*
D03*
D19*
X9976500Y7924100D02*
D03*
X9296500Y7624100D02*
D03*
X9976500Y7974100D02*
D03*
X9296500D02*
D03*
Y7574100D02*
D03*
X9976500Y7824100D02*
D03*
Y7774100D02*
D03*
X9296500D02*
D03*
Y7674100D02*
D03*
X9976500Y7874100D02*
D03*
Y7724100D02*
D03*
Y7674100D02*
D03*
Y7624100D02*
D03*
Y7574100D02*
D03*
Y7524100D02*
D03*
Y7474100D02*
D03*
Y7424100D02*
D03*
X9296500D02*
D03*
Y7474100D02*
D03*
Y7524100D02*
D03*
Y7724100D02*
D03*
Y7824100D02*
D03*
Y7874100D02*
D03*
Y7924100D02*
D03*
D20*
X9411500Y8039100D02*
D03*
X9861500Y7359100D02*
D03*
X9561500Y8039100D02*
D03*
X9361500D02*
D03*
X9911500Y7359100D02*
D03*
Y8039100D02*
D03*
X9461500D02*
D03*
X9511500D02*
D03*
X9611500D02*
D03*
X9661500D02*
D03*
X9711500D02*
D03*
X9761500D02*
D03*
X9811500D02*
D03*
X9861500D02*
D03*
X9811500Y7359100D02*
D03*
X9761500D02*
D03*
X9711500D02*
D03*
X9661500D02*
D03*
X9611500D02*
D03*
X9561500D02*
D03*
X9511500D02*
D03*
X9461500D02*
D03*
X9411500D02*
D03*
X9361500D02*
D03*
D21*
X10902500Y7367063D02*
D03*
X11142500D02*
D03*
X8910000Y7859782D02*
D03*
Y8020218D02*
D03*
X11142500Y7527500D02*
D03*
X10902500D02*
D03*
D22*
X10150000Y7310000D02*
D03*
X10840000Y9000000D02*
D03*
X9832500Y8587500D02*
D03*
X9542500D02*
D03*
X8880000Y7610000D02*
D03*
X10740000Y9000000D02*
D03*
X9642500Y8587500D02*
D03*
X9732500D02*
D03*
X10250000Y7310000D02*
D03*
X8980000Y7610000D02*
D03*
D23*
X11039000Y6922000D02*
D03*
D24*
X11290000Y6685000D02*
D03*
Y6500000D02*
D03*
D25*
X10892500Y7125000D02*
D03*
X10707500D02*
D03*
D26*
X9805000Y6395000D02*
D03*
X9180000D02*
D03*
X9680000D02*
D03*
X9555000D02*
D03*
X9430000D02*
D03*
X9305000D02*
D03*
D27*
X9634781Y7165000D02*
D03*
X9795218D02*
D03*
D28*
X9137500Y8837500D02*
D03*
Y8437500D02*
D03*
X8887500D02*
D03*
X9087500Y8837500D02*
D03*
X9037500D02*
D03*
X8987500D02*
D03*
X8937500D02*
D03*
X8887500D02*
D03*
X9087500Y8437500D02*
D03*
X9037500D02*
D03*
X8987500D02*
D03*
X8937500D02*
D03*
D29*
X9012500Y8637500D02*
D03*
D31*
X9636500Y7699100D02*
D03*
D32*
X8690000Y7260000D02*
D03*
X8910000Y7100000D02*
D03*
X8690000D02*
D03*
X8910000Y7260000D02*
D03*
D33*
X10810000Y6922000D02*
D03*
X10581000D02*
D03*
D34*
X10810000Y6263000D02*
D03*
D35*
X11702500Y7497500D02*
D03*
Y8172500D02*
D03*
D36*
Y7720000D02*
D03*
D37*
Y7990000D02*
D03*
D38*
X11445000Y7586250D02*
D03*
Y8083750D02*
D03*
D39*
X11105000Y7690000D02*
D03*
X10940000D02*
D03*
D40*
X9990000Y6075000D02*
D03*
X8995000D02*
D03*
D41*
X10145000Y7470000D02*
D03*
X10255000D02*
D03*
D46*
X11700000Y6330000D02*
D03*
X8490000Y8890000D02*
D03*
X9746500Y7919100D02*
D03*
X9636500D02*
D03*
X9856500D02*
D03*
X9636500Y7809100D02*
D03*
X9856500D02*
D03*
X9746500D02*
D03*
X9526500Y7919100D02*
D03*
Y7699100D02*
D03*
Y7809100D02*
D03*
X9416500Y7699100D02*
D03*
X9856500Y7479100D02*
D03*
X9746500Y7699100D02*
D03*
X9856500D02*
D03*
X9636500Y7589100D02*
D03*
X9856500D02*
D03*
X9746500D02*
D03*
X9636500Y7699100D02*
D03*
X9416500Y7589100D02*
D03*
X9526500D02*
D03*
X9416500Y7479100D02*
D03*
X9746500D02*
D03*
X9636500D02*
D03*
X9526500D02*
D03*
X9067500Y8692500D02*
D03*
X8957500Y8582500D02*
D03*
Y8692500D02*
D03*
X9067500Y8582500D02*
D03*
X9416500Y7919100D02*
D03*
Y7809100D02*
D03*
D47*
X11600000Y9100000D02*
D03*
X8600000D02*
D03*
X11600000Y6100000D02*
D03*
X8600000D02*
D03*
D48*
X10272999Y8491899D02*
D03*
Y8695099D02*
D03*
X10780999Y8593499D02*
D03*
D50*
X10300000Y9000000D02*
D03*
X9066921Y7671710D02*
D03*
X9800000Y6560000D02*
D03*
X8620000Y7370000D02*
D03*
X9060000Y7100000D02*
D03*
X9070000Y7360000D02*
D03*
X10580000Y8110000D02*
D03*
X10240000D02*
D03*
X9490000Y8720000D02*
D03*
Y8880000D02*
D03*
X9310000Y8680000D02*
D03*
X10520000Y8840000D02*
D03*
X11265000Y7965000D02*
D03*
X8820000Y8290000D02*
D03*
X8640000D02*
D03*
X9840000Y6100000D02*
D03*
X10170000D02*
D03*
X10150000Y7210000D02*
D03*
X11140000Y7230000D02*
D03*
X11287500Y6847500D02*
D03*
X11040000Y6810000D02*
D03*
X11055000Y7127500D02*
D03*
X9712500Y7020000D02*
D03*
X8760000Y7860000D02*
D03*
X9465000Y8467500D02*
D03*
X9732500Y8715000D02*
D03*
D53*
X8815000Y8662500D02*
D03*
Y8562500D02*
D03*
Y8712500D02*
D03*
Y8762500D02*
D03*
Y8612500D02*
D03*
Y8512500D02*
D03*
X9210000Y8762500D02*
D03*
Y8712500D02*
D03*
Y8662500D02*
D03*
Y8612500D02*
D03*
Y8562500D02*
D03*
Y8512500D02*
D03*
D54*
X11600006Y8800005D02*
D03*
X11700006Y8600005D02*
D03*
X11600006Y8400005D02*
D03*
Y7200004D02*
D03*
X11700006Y7000004D02*
D03*
Y6600004D02*
D03*
X11400006Y8800005D02*
D03*
X11500006Y8600005D02*
D03*
X11400006Y8400005D02*
D03*
X11500006Y7400004D02*
D03*
X11400006Y7200004D02*
D03*
X11500006Y7000004D02*
D03*
X11400006Y6000003D02*
D03*
X11300006Y9000005D02*
D03*
Y8600005D02*
D03*
Y8200004D02*
D03*
Y7400004D02*
D03*
Y7000004D02*
D03*
X11000006Y8800005D02*
D03*
Y8400005D02*
D03*
Y8000004D02*
D03*
X10800006Y8400005D02*
D03*
Y8000004D02*
D03*
X10600006Y7600004D02*
D03*
Y6800004D02*
D03*
Y6400003D02*
D03*
X10400006Y7600004D02*
D03*
X10500006Y7400004D02*
D03*
X10400006Y7200004D02*
D03*
Y6800004D02*
D03*
X10500006Y6600004D02*
D03*
X10400006Y6400003D02*
D03*
X10200006Y7600004D02*
D03*
X10300006Y7000004D02*
D03*
X10000005Y8800005D02*
D03*
X10100005Y8600005D02*
D03*
X10000005Y6800004D02*
D03*
X10100005Y6600004D02*
D03*
X10000005Y6400003D02*
D03*
X9900005Y7000004D02*
D03*
X9800005Y6800004D02*
D03*
X9200005D02*
D03*
Y6000003D02*
D03*
X9000005Y6400003D02*
D03*
X8800005D02*
D03*
Y6000003D02*
D03*
X8700005Y6600004D02*
D03*
X8600005Y6400003D02*
D03*
%TF.MD5,03b65813f4954646d7619410ff967f62*%
M02*
