%TF.GenerationSoftware,Altium Limited,Altium Designer,26.9.1 (10)*%
G04 Layer_Color=128*
G04 Board_Origin=0|0*
%FSLAX45Y45*%
%MOMM*%
%TF.SameCoordinates,C36C2D22-AD09-4E02-BB68-3F62A754FCC7*%
%TF.FilePolarity,Positive*%
%TF.FileFunction,Drillmap*%
%TF.Part,Single*%
G01*
G75*
%TA.AperFunction,NonConductor*%
%ADD67C,0.12700*%
D67*
X11642400Y6330000D02*
X11757600D01*
X11700000Y6272400D02*
Y6387600D01*
X8432400Y8890000D02*
X8547600D01*
X8490000Y8832400D02*
Y8947600D01*
X11475000Y9100000D02*
X11725000D01*
X11600000Y8975000D02*
Y9225000D01*
X8475000Y9100000D02*
X8725000D01*
X8600000Y8975000D02*
Y9225000D01*
X11475000Y6100000D02*
X11725000D01*
X11600000Y5975000D02*
Y6225000D01*
X10223449Y8491899D02*
X10322549D01*
X10272999Y8442350D02*
Y8541449D01*
X10223449Y8695099D02*
X10322549D01*
X10272999Y8645550D02*
Y8744649D01*
X10731449Y8593499D02*
X10830549D01*
X10780999Y8543950D02*
Y8643049D01*
X8475000Y6100000D02*
X8725000D01*
X8600000Y5975000D02*
Y6225000D01*
X11580006Y8800005D02*
X11620006D01*
X11600006Y8780005D02*
Y8820005D01*
X11680006Y8600005D02*
X11720006D01*
X11700006Y8580005D02*
Y8620005D01*
X11580006Y8400005D02*
X11620006D01*
X11600006Y8380005D02*
Y8420004D01*
X11580006Y7200004D02*
X11620006D01*
X11600006Y7180004D02*
Y7220004D01*
X11680006Y7000004D02*
X11720006D01*
X11700006Y6980004D02*
Y7020004D01*
X11680006Y6600004D02*
X11720006D01*
X11700006Y6580004D02*
Y6620004D01*
X11380006Y8800005D02*
X11420006D01*
X11400006Y8780005D02*
Y8820005D01*
X11480006Y8600005D02*
X11520006D01*
X11500006Y8580005D02*
Y8620005D01*
X11380006Y8400005D02*
X11420006D01*
X11400006Y8380005D02*
Y8420004D01*
X11480006Y7400004D02*
X11520006D01*
X11500006Y7380004D02*
Y7420004D01*
X11380006Y7200004D02*
X11420006D01*
X11400006Y7180004D02*
Y7220004D01*
X11480006Y7000004D02*
X11520006D01*
X11500006Y6980004D02*
Y7020004D01*
X11380006Y6000003D02*
X11420006D01*
X11400006Y5980003D02*
Y6020003D01*
X11280006Y9000005D02*
X11320006D01*
X11300006Y8980005D02*
Y9020005D01*
X11280006Y8600005D02*
X11320006D01*
X11300006Y8580005D02*
Y8620005D01*
X11280006Y8200004D02*
X11320006D01*
X11300006Y8180004D02*
Y8220004D01*
X11280006Y7400004D02*
X11320006D01*
X11300006Y7380004D02*
Y7420004D01*
X11280006Y7000004D02*
X11320006D01*
X11300006Y6980004D02*
Y7020004D01*
X10980006Y8800005D02*
X11020006D01*
X11000006Y8780005D02*
Y8820005D01*
X10980006Y8400005D02*
X11020006D01*
X11000006Y8380005D02*
Y8420004D01*
X10980006Y8000004D02*
X11020006D01*
X11000006Y7980004D02*
Y8020004D01*
X10780006Y8400005D02*
X10820006D01*
X10800006Y8380005D02*
Y8420004D01*
X10780006Y8000004D02*
X10820006D01*
X10800006Y7980004D02*
Y8020004D01*
X10580006Y7600004D02*
X10620006D01*
X10600006Y7580004D02*
Y7620004D01*
X10580006Y6800004D02*
X10620006D01*
X10600006Y6780004D02*
Y6820004D01*
X10580006Y6400003D02*
X10620006D01*
X10600006Y6380003D02*
Y6420003D01*
X10380006Y7600004D02*
X10420006D01*
X10400006Y7580004D02*
Y7620004D01*
X10480006Y7400004D02*
X10520006D01*
X10500006Y7380004D02*
Y7420004D01*
X10380006Y7200004D02*
X10420006D01*
X10400006Y7180004D02*
Y7220004D01*
X10380006Y6800004D02*
X10420006D01*
X10400006Y6780004D02*
Y6820004D01*
X10480006Y6600004D02*
X10520006D01*
X10500006Y6580004D02*
Y6620004D01*
X10380006Y6400003D02*
X10420006D01*
X10400006Y6380003D02*
Y6420003D01*
X10180006Y7600004D02*
X10220005D01*
X10200006Y7580004D02*
Y7620004D01*
X10280006Y7000004D02*
X10320006D01*
X10300006Y6980004D02*
Y7020004D01*
X9980005Y8800005D02*
X10020005D01*
X10000005Y8780005D02*
Y8820005D01*
X10080005Y8600005D02*
X10120005D01*
X10100005Y8580005D02*
Y8620005D01*
X9980005Y6800004D02*
X10020005D01*
X10000005Y6780004D02*
Y6820004D01*
X10080005Y6600004D02*
X10120005D01*
X10100005Y6580004D02*
Y6620004D01*
X9980005Y6400003D02*
X10020005D01*
X10000005Y6380003D02*
Y6420003D01*
X9880005Y7000004D02*
X9920005D01*
X9900005Y6980004D02*
Y7020004D01*
X9780005Y6800004D02*
X9820005D01*
X9800005Y6780004D02*
Y6820004D01*
X9180005Y6800004D02*
X9220005D01*
X9200005Y6780004D02*
Y6820004D01*
X9180005Y6000003D02*
X9220005D01*
X9200005Y5980003D02*
Y6020003D01*
X8980005Y6400003D02*
X9020005D01*
X9000005Y6380003D02*
Y6420003D01*
X8780005Y6400003D02*
X8820005D01*
X8800005Y6380003D02*
Y6420003D01*
X8780005Y6000003D02*
X8820005D01*
X8800005Y5980003D02*
Y6020003D01*
X8680005Y6600004D02*
X8720005D01*
X8700005Y6580004D02*
Y6620004D01*
X8580005Y6400003D02*
X8620005D01*
X8600005Y6380003D02*
Y6420003D01*
X10285000Y9000000D02*
X10315000D01*
X10300000Y8985000D02*
Y9015000D01*
X9051921Y7671710D02*
X9081921D01*
X9066921Y7656710D02*
Y7686710D01*
X9785000Y6560000D02*
X9815000D01*
X9800000Y6545000D02*
Y6575000D01*
X8605000Y7370000D02*
X8635000D01*
X8620000Y7355000D02*
Y7385000D01*
X9045000Y7100000D02*
X9075000D01*
X9060000Y7085000D02*
Y7115000D01*
X9055000Y7360000D02*
X9085000D01*
X9070000Y7345000D02*
Y7375000D01*
X10565000Y8110000D02*
X10595000D01*
X10580000Y8095000D02*
Y8125000D01*
X10225000Y8110000D02*
X10255000D01*
X10240000Y8095000D02*
Y8125000D01*
X9475000Y8720000D02*
X9505000D01*
X9490000Y8705000D02*
Y8735000D01*
X9475000Y8880000D02*
X9505000D01*
X9490000Y8865000D02*
Y8895000D01*
X9295000Y8680000D02*
X9325000D01*
X9310000Y8665000D02*
Y8695000D01*
X10505000Y8840000D02*
X10535000D01*
X10520000Y8825000D02*
Y8855000D01*
X11250000Y7965000D02*
X11280000D01*
X11265000Y7950000D02*
Y7980000D01*
X8805000Y8290000D02*
X8835000D01*
X8820000Y8275000D02*
Y8305000D01*
X8625000Y8290000D02*
X8655000D01*
X8640000Y8275000D02*
Y8305000D01*
X9825000Y6100000D02*
X9855000D01*
X9840000Y6085000D02*
Y6115000D01*
X10155000Y6100000D02*
X10185000D01*
X10170000Y6085000D02*
Y6115000D01*
X10135000Y7210000D02*
X10165000D01*
X10150000Y7195000D02*
Y7225000D01*
X11125000Y7230000D02*
X11155000D01*
X11140000Y7215000D02*
Y7245000D01*
X11272500Y6847500D02*
X11302500D01*
X11287500Y6832500D02*
Y6862500D01*
X11025000Y6810000D02*
X11055000D01*
X11040000Y6795000D02*
Y6825000D01*
Y7127500D02*
X11070000D01*
X11055000Y7112500D02*
Y7142500D01*
X9697500Y7020000D02*
X9727500D01*
X9712500Y7005000D02*
Y7035000D01*
X8745000Y7860000D02*
X8775000D01*
X8760000Y7845000D02*
Y7875000D01*
X9450000Y8467500D02*
X9480000D01*
X9465000Y8452500D02*
Y8482500D01*
X9736500Y7919100D02*
X9756500D01*
X9746500Y7909100D02*
Y7929100D01*
X9626500Y7919100D02*
X9646500D01*
X9636500Y7909100D02*
Y7929100D01*
X9846500Y7919100D02*
X9866500D01*
X9856500Y7909100D02*
Y7929100D01*
X9626500Y7809100D02*
X9646500D01*
X9636500Y7799100D02*
Y7819100D01*
X9846500Y7809100D02*
X9866500D01*
X9856500Y7799100D02*
Y7819100D01*
X9736500Y7809100D02*
X9756500D01*
X9746500Y7799100D02*
Y7819100D01*
X9516500Y7919100D02*
X9536500D01*
X9526500Y7909100D02*
Y7929100D01*
X9516500Y7699100D02*
X9536500D01*
X9526500Y7689100D02*
Y7709100D01*
X9516500Y7809100D02*
X9536500D01*
X9526500Y7799100D02*
Y7819100D01*
X9406500Y7699100D02*
X9426500D01*
X9416500Y7689100D02*
Y7709100D01*
X9846500Y7479100D02*
X9866500D01*
X9856500Y7469100D02*
Y7489100D01*
X9736500Y7699100D02*
X9756500D01*
X9746500Y7689100D02*
Y7709100D01*
X9846500Y7699100D02*
X9866500D01*
X9856500Y7689100D02*
Y7709100D01*
X9626500Y7589100D02*
X9646500D01*
X9636500Y7579100D02*
Y7599100D01*
X9846500Y7589100D02*
X9866500D01*
X9856500Y7579100D02*
Y7599100D01*
X9736500Y7589100D02*
X9756500D01*
X9746500Y7579100D02*
Y7599100D01*
X9626500Y7699100D02*
X9646500D01*
X9636500Y7689100D02*
Y7709100D01*
X9406500Y7589100D02*
X9426500D01*
X9416500Y7579100D02*
Y7599100D01*
X9516500Y7589100D02*
X9536500D01*
X9526500Y7579100D02*
Y7599100D01*
X9406500Y7479100D02*
X9426500D01*
X9416500Y7469100D02*
Y7489100D01*
X9736500Y7479100D02*
X9756500D01*
X9746500Y7469100D02*
Y7489100D01*
X9626500Y7479100D02*
X9646500D01*
X9636500Y7469100D02*
Y7489100D01*
X9516500Y7479100D02*
X9536500D01*
X9526500Y7469100D02*
Y7489100D01*
X9057500Y8692500D02*
X9077500D01*
X9067500Y8682500D02*
Y8702499D01*
X8947501Y8582500D02*
X8967500D01*
X8957500Y8572500D02*
Y8592500D01*
X8947501Y8692500D02*
X8967500D01*
X8957500Y8682500D02*
Y8702499D01*
X9057500Y8582500D02*
X9077500D01*
X9067500Y8572500D02*
Y8592500D01*
X9406500Y7919100D02*
X9426500D01*
X9416500Y7909100D02*
Y7929100D01*
X9406500Y7809100D02*
X9426500D01*
X9416500Y7799100D02*
Y7819100D01*
X9717500Y8715000D02*
X9747500D01*
X9732500Y8700000D02*
Y8730000D01*
%TF.MD5,ac8d0e4e0138106f8ea3092762431ffd*%
M02*
