%TF.GenerationSoftware,Altium Limited,Altium Designer,26.9.1 (10)*%
G04 Layer_Color=16711935*
G04 Board_Origin=0|0*
%FSLAX45Y45*%
%MOMM*%
%TF.SameCoordinates,C36C2D22-AD09-4E02-BB68-3F62A754FCC7*%
%TF.FilePolarity,Negative*%
%TF.FileFunction,Soldermask,Bot*%
%TF.Part,Single*%
G01*
G75*
%TA.AperFunction,ViaPad*%
%ADD46C,0.50000*%
%ADD47C,1.52400*%
%TA.AperFunction,ComponentPad*%
%ADD48C,0.99100*%
%TA.AperFunction,ViaPad*%
%ADD50C,0.70000*%
%ADD54C,1.00400*%
D46*
X11700000Y6330000D02*
D03*
X8490000Y8890000D02*
D03*
X9746500Y7919100D02*
D03*
X9636500D02*
D03*
X9856500D02*
D03*
X9636500Y7809100D02*
D03*
X9856500D02*
D03*
X9746500D02*
D03*
X9526500Y7919100D02*
D03*
Y7699100D02*
D03*
Y7809100D02*
D03*
X9416500Y7699100D02*
D03*
X9856500Y7479100D02*
D03*
X9746500Y7699100D02*
D03*
X9856500D02*
D03*
X9636500Y7589100D02*
D03*
X9856500D02*
D03*
X9746500D02*
D03*
X9636500Y7699100D02*
D03*
X9416500Y7589100D02*
D03*
X9526500D02*
D03*
X9416500Y7479100D02*
D03*
X9746500D02*
D03*
X9636500D02*
D03*
X9526500D02*
D03*
X9067500Y8692500D02*
D03*
X8957500Y8582500D02*
D03*
Y8692500D02*
D03*
X9067500Y8582500D02*
D03*
X9416500Y7919100D02*
D03*
Y7809100D02*
D03*
D47*
X11600000Y9100000D02*
D03*
X8600000D02*
D03*
X11600000Y6100000D02*
D03*
X8600000D02*
D03*
D48*
X10272999Y8491899D02*
D03*
Y8695099D02*
D03*
X10780999Y8593499D02*
D03*
D50*
X10300000Y9000000D02*
D03*
X9066921Y7671710D02*
D03*
X9800000Y6560000D02*
D03*
X8620000Y7370000D02*
D03*
X9060000Y7100000D02*
D03*
X9070000Y7360000D02*
D03*
X10580000Y8110000D02*
D03*
X10240000D02*
D03*
X9490000Y8720000D02*
D03*
Y8880000D02*
D03*
X9310000Y8680000D02*
D03*
X10520000Y8840000D02*
D03*
X11265000Y7965000D02*
D03*
X8820000Y8290000D02*
D03*
X8640000D02*
D03*
X9840000Y6100000D02*
D03*
X10170000D02*
D03*
X10150000Y7210000D02*
D03*
X11140000Y7230000D02*
D03*
X11287500Y6847500D02*
D03*
X11040000Y6810000D02*
D03*
X11055000Y7127500D02*
D03*
X9712500Y7020000D02*
D03*
X8760000Y7860000D02*
D03*
X9465000Y8467500D02*
D03*
X9732500Y8715000D02*
D03*
D54*
X11600006Y8800005D02*
D03*
X11700006Y8600005D02*
D03*
X11600006Y8400005D02*
D03*
Y7200004D02*
D03*
X11700006Y7000004D02*
D03*
Y6600004D02*
D03*
X11400006Y8800005D02*
D03*
X11500006Y8600005D02*
D03*
X11400006Y8400005D02*
D03*
X11500006Y7400004D02*
D03*
X11400006Y7200004D02*
D03*
X11500006Y7000004D02*
D03*
X11400006Y6000003D02*
D03*
X11300006Y9000005D02*
D03*
Y8600005D02*
D03*
Y8200004D02*
D03*
Y7400004D02*
D03*
Y7000004D02*
D03*
X11000006Y8800005D02*
D03*
Y8400005D02*
D03*
Y8000004D02*
D03*
X10800006Y8400005D02*
D03*
Y8000004D02*
D03*
X10600006Y7600004D02*
D03*
Y6800004D02*
D03*
Y6400003D02*
D03*
X10400006Y7600004D02*
D03*
X10500006Y7400004D02*
D03*
X10400006Y7200004D02*
D03*
Y6800004D02*
D03*
X10500006Y6600004D02*
D03*
X10400006Y6400003D02*
D03*
X10200006Y7600004D02*
D03*
X10300006Y7000004D02*
D03*
X10000005Y8800005D02*
D03*
X10100005Y8600005D02*
D03*
X10000005Y6800004D02*
D03*
X10100005Y6600004D02*
D03*
X10000005Y6400003D02*
D03*
X9900005Y7000004D02*
D03*
X9800005Y6800004D02*
D03*
X9200005D02*
D03*
Y6000003D02*
D03*
X9000005Y6400003D02*
D03*
X8800005D02*
D03*
Y6000003D02*
D03*
X8700005Y6600004D02*
D03*
X8600005Y6400003D02*
D03*
%TF.MD5,f2fcdc2f0ead74b7cd174a8cc1fb2ea3*%
M02*
