%TF.GenerationSoftware,Altium Limited,Altium Designer,26.9.1 (10)*%
G04 Layer_Color=2752767*
G04 Board_Origin=0|0*
%FSLAX45Y45*%
%MOMM*%
%TF.SameCoordinates,C36C2D22-AD09-4E02-BB68-3F62A754FCC7*%
%TF.FilePolarity,Positive*%
%TF.FileFunction,Drawing*%
%TF.Part,Single*%
G01*
G75*
%TA.AperFunction,NonConductor*%
%ADD67C,0.12700*%
%ADD68C,0.16933*%
D67*
X11700000Y6279200D02*
X11649200Y6380800D01*
X11750800D01*
X11700000Y6279200D01*
X8490000Y8839200D02*
X8439200Y8940800D01*
X8540800D01*
X8490000Y8839200D01*
X11549200Y9049200D02*
X11574600Y9100000D01*
X11549200Y9150800D01*
X11600000Y9125400D01*
X11650800Y9150800D01*
X11625400Y9100000D01*
X11650800Y9049200D01*
X11600000Y9074600D01*
X11549200Y9049200D01*
X8549200D02*
X8574600Y9100000D01*
X8549200Y9150800D01*
X8600000Y9125400D01*
X8650800Y9150800D01*
X8625400Y9100000D01*
X8650800Y9049200D01*
X8600000Y9074600D01*
X8549200Y9049200D01*
X11549200Y6049200D02*
X11574600Y6100000D01*
X11549200Y6150800D01*
X11600000Y6125400D01*
X11650800Y6150800D01*
X11625400Y6100000D01*
X11650800Y6049200D01*
X11600000Y6074600D01*
X11549200Y6049200D01*
X10222199Y8441099D02*
Y8542699D01*
X10323799D01*
Y8441099D01*
X10222199D01*
Y8644299D02*
Y8745899D01*
X10323799D01*
Y8644299D01*
X10222199D01*
X10730199Y8542699D02*
Y8644299D01*
X10831799D01*
Y8542699D01*
X10730199D01*
X8549200Y6049200D02*
X8574600Y6100000D01*
X8549200Y6150800D01*
X8600000Y6125400D01*
X8650800Y6150800D01*
X8625400Y6100000D01*
X8650800Y6049200D01*
X8600000Y6074600D01*
X8549200Y6049200D01*
X11574606Y8774605D02*
Y8749205D01*
X11625406D01*
Y8774605D01*
X11650806D01*
Y8825405D01*
X11625406D01*
Y8850805D01*
X11574606D01*
Y8825405D01*
X11549206D01*
Y8774605D01*
X11574606D01*
X11674606Y8574605D02*
Y8549205D01*
X11725406D01*
Y8574605D01*
X11750806D01*
Y8625405D01*
X11725406D01*
Y8650805D01*
X11674606D01*
Y8625405D01*
X11649206D01*
Y8574605D01*
X11674606D01*
X11574606Y8374605D02*
Y8349205D01*
X11625406D01*
Y8374605D01*
X11650806D01*
Y8425405D01*
X11625406D01*
Y8450805D01*
X11574606D01*
Y8425405D01*
X11549206D01*
Y8374605D01*
X11574606D01*
Y7174604D02*
Y7149204D01*
X11625406D01*
Y7174604D01*
X11650806D01*
Y7225404D01*
X11625406D01*
Y7250804D01*
X11574606D01*
Y7225404D01*
X11549206D01*
Y7174604D01*
X11574606D01*
X11674606Y6974604D02*
Y6949204D01*
X11725406D01*
Y6974604D01*
X11750806D01*
Y7025404D01*
X11725406D01*
Y7050804D01*
X11674606D01*
Y7025404D01*
X11649206D01*
Y6974604D01*
X11674606D01*
Y6574604D02*
Y6549204D01*
X11725406D01*
Y6574604D01*
X11750806D01*
Y6625404D01*
X11725406D01*
Y6650804D01*
X11674606D01*
Y6625404D01*
X11649206D01*
Y6574604D01*
X11674606D01*
X11374606Y8774605D02*
Y8749205D01*
X11425406D01*
Y8774605D01*
X11450806D01*
Y8825405D01*
X11425406D01*
Y8850805D01*
X11374606D01*
Y8825405D01*
X11349206D01*
Y8774605D01*
X11374606D01*
X11474606Y8574605D02*
Y8549205D01*
X11525406D01*
Y8574605D01*
X11550806D01*
Y8625405D01*
X11525406D01*
Y8650805D01*
X11474606D01*
Y8625405D01*
X11449206D01*
Y8574605D01*
X11474606D01*
X11374606Y8374605D02*
Y8349205D01*
X11425406D01*
Y8374605D01*
X11450806D01*
Y8425405D01*
X11425406D01*
Y8450805D01*
X11374606D01*
Y8425405D01*
X11349206D01*
Y8374605D01*
X11374606D01*
X11474606Y7374604D02*
Y7349204D01*
X11525406D01*
Y7374604D01*
X11550806D01*
Y7425404D01*
X11525406D01*
Y7450804D01*
X11474606D01*
Y7425404D01*
X11449206D01*
Y7374604D01*
X11474606D01*
X11374606Y7174604D02*
Y7149204D01*
X11425406D01*
Y7174604D01*
X11450806D01*
Y7225404D01*
X11425406D01*
Y7250804D01*
X11374606D01*
Y7225404D01*
X11349206D01*
Y7174604D01*
X11374606D01*
X11474606Y6974604D02*
Y6949204D01*
X11525406D01*
Y6974604D01*
X11550806D01*
Y7025404D01*
X11525406D01*
Y7050804D01*
X11474606D01*
Y7025404D01*
X11449206D01*
Y6974604D01*
X11474606D01*
X11374606Y5974603D02*
Y5949203D01*
X11425406D01*
Y5974603D01*
X11450806D01*
Y6025403D01*
X11425406D01*
Y6050803D01*
X11374606D01*
Y6025403D01*
X11349206D01*
Y5974603D01*
X11374606D01*
X11274606Y8974605D02*
Y8949205D01*
X11325406D01*
Y8974605D01*
X11350806D01*
Y9025405D01*
X11325406D01*
Y9050805D01*
X11274606D01*
Y9025405D01*
X11249206D01*
Y8974605D01*
X11274606D01*
Y8574605D02*
Y8549205D01*
X11325406D01*
Y8574605D01*
X11350806D01*
Y8625405D01*
X11325406D01*
Y8650805D01*
X11274606D01*
Y8625405D01*
X11249206D01*
Y8574605D01*
X11274606D01*
Y8174604D02*
Y8149204D01*
X11325406D01*
Y8174604D01*
X11350806D01*
Y8225404D01*
X11325406D01*
Y8250804D01*
X11274606D01*
Y8225404D01*
X11249206D01*
Y8174604D01*
X11274606D01*
Y7374604D02*
Y7349204D01*
X11325406D01*
Y7374604D01*
X11350806D01*
Y7425404D01*
X11325406D01*
Y7450804D01*
X11274606D01*
Y7425404D01*
X11249206D01*
Y7374604D01*
X11274606D01*
Y6974604D02*
Y6949204D01*
X11325406D01*
Y6974604D01*
X11350806D01*
Y7025404D01*
X11325406D01*
Y7050804D01*
X11274606D01*
Y7025404D01*
X11249206D01*
Y6974604D01*
X11274606D01*
X10974606Y8774605D02*
Y8749205D01*
X11025406D01*
Y8774605D01*
X11050806D01*
Y8825405D01*
X11025406D01*
Y8850805D01*
X10974606D01*
Y8825405D01*
X10949206D01*
Y8774605D01*
X10974606D01*
Y8374605D02*
Y8349205D01*
X11025406D01*
Y8374605D01*
X11050806D01*
Y8425405D01*
X11025406D01*
Y8450805D01*
X10974606D01*
Y8425405D01*
X10949206D01*
Y8374605D01*
X10974606D01*
Y7974604D02*
Y7949204D01*
X11025406D01*
Y7974604D01*
X11050806D01*
Y8025404D01*
X11025406D01*
Y8050804D01*
X10974606D01*
Y8025404D01*
X10949206D01*
Y7974604D01*
X10974606D01*
X10774606Y8374605D02*
Y8349205D01*
X10825406D01*
Y8374605D01*
X10850806D01*
Y8425405D01*
X10825406D01*
Y8450805D01*
X10774606D01*
Y8425405D01*
X10749206D01*
Y8374605D01*
X10774606D01*
Y7974604D02*
Y7949204D01*
X10825406D01*
Y7974604D01*
X10850806D01*
Y8025404D01*
X10825406D01*
Y8050804D01*
X10774606D01*
Y8025404D01*
X10749206D01*
Y7974604D01*
X10774606D01*
X10574606Y7574604D02*
Y7549204D01*
X10625406D01*
Y7574604D01*
X10650806D01*
Y7625404D01*
X10625406D01*
Y7650804D01*
X10574606D01*
Y7625404D01*
X10549206D01*
Y7574604D01*
X10574606D01*
Y6774604D02*
Y6749204D01*
X10625406D01*
Y6774604D01*
X10650806D01*
Y6825404D01*
X10625406D01*
Y6850804D01*
X10574606D01*
Y6825404D01*
X10549206D01*
Y6774604D01*
X10574606D01*
Y6374603D02*
Y6349203D01*
X10625406D01*
Y6374603D01*
X10650806D01*
Y6425403D01*
X10625406D01*
Y6450803D01*
X10574606D01*
Y6425403D01*
X10549206D01*
Y6374603D01*
X10574606D01*
X10374606Y7574604D02*
Y7549204D01*
X10425406D01*
Y7574604D01*
X10450806D01*
Y7625404D01*
X10425406D01*
Y7650804D01*
X10374606D01*
Y7625404D01*
X10349206D01*
Y7574604D01*
X10374606D01*
X10474606Y7374604D02*
Y7349204D01*
X10525406D01*
Y7374604D01*
X10550806D01*
Y7425404D01*
X10525406D01*
Y7450804D01*
X10474606D01*
Y7425404D01*
X10449206D01*
Y7374604D01*
X10474606D01*
X10374606Y7174604D02*
Y7149204D01*
X10425406D01*
Y7174604D01*
X10450806D01*
Y7225404D01*
X10425406D01*
Y7250804D01*
X10374606D01*
Y7225404D01*
X10349206D01*
Y7174604D01*
X10374606D01*
Y6774604D02*
Y6749204D01*
X10425406D01*
Y6774604D01*
X10450806D01*
Y6825404D01*
X10425406D01*
Y6850804D01*
X10374606D01*
Y6825404D01*
X10349206D01*
Y6774604D01*
X10374606D01*
X10474606Y6574604D02*
Y6549204D01*
X10525406D01*
Y6574604D01*
X10550806D01*
Y6625404D01*
X10525406D01*
Y6650804D01*
X10474606D01*
Y6625404D01*
X10449206D01*
Y6574604D01*
X10474606D01*
X10374606Y6374603D02*
Y6349203D01*
X10425406D01*
Y6374603D01*
X10450806D01*
Y6425403D01*
X10425406D01*
Y6450803D01*
X10374606D01*
Y6425403D01*
X10349206D01*
Y6374603D01*
X10374606D01*
X10174606Y7574604D02*
Y7549204D01*
X10225406D01*
Y7574604D01*
X10250806D01*
Y7625404D01*
X10225406D01*
Y7650804D01*
X10174606D01*
Y7625404D01*
X10149206D01*
Y7574604D01*
X10174606D01*
X10274606Y6974604D02*
Y6949204D01*
X10325406D01*
Y6974604D01*
X10350806D01*
Y7025404D01*
X10325406D01*
Y7050804D01*
X10274606D01*
Y7025404D01*
X10249206D01*
Y6974604D01*
X10274606D01*
X9974605Y8774605D02*
Y8749205D01*
X10025405D01*
Y8774605D01*
X10050805D01*
Y8825405D01*
X10025405D01*
Y8850805D01*
X9974605D01*
Y8825405D01*
X9949205D01*
Y8774605D01*
X9974605D01*
X10074605Y8574605D02*
Y8549205D01*
X10125405D01*
Y8574605D01*
X10150805D01*
Y8625405D01*
X10125405D01*
Y8650805D01*
X10074605D01*
Y8625405D01*
X10049205D01*
Y8574605D01*
X10074605D01*
X9974605Y6774604D02*
Y6749204D01*
X10025405D01*
Y6774604D01*
X10050805D01*
Y6825404D01*
X10025405D01*
Y6850804D01*
X9974605D01*
Y6825404D01*
X9949205D01*
Y6774604D01*
X9974605D01*
X10074605Y6574604D02*
Y6549204D01*
X10125405D01*
Y6574604D01*
X10150805D01*
Y6625404D01*
X10125405D01*
Y6650804D01*
X10074605D01*
Y6625404D01*
X10049205D01*
Y6574604D01*
X10074605D01*
X9974605Y6374603D02*
Y6349203D01*
X10025405D01*
Y6374603D01*
X10050805D01*
Y6425403D01*
X10025405D01*
Y6450803D01*
X9974605D01*
Y6425403D01*
X9949205D01*
Y6374603D01*
X9974605D01*
X9874605Y6974604D02*
Y6949204D01*
X9925405D01*
Y6974604D01*
X9950805D01*
Y7025404D01*
X9925405D01*
Y7050804D01*
X9874605D01*
Y7025404D01*
X9849205D01*
Y6974604D01*
X9874605D01*
X9774605Y6774604D02*
Y6749204D01*
X9825405D01*
Y6774604D01*
X9850805D01*
Y6825404D01*
X9825405D01*
Y6850804D01*
X9774605D01*
Y6825404D01*
X9749205D01*
Y6774604D01*
X9774605D01*
X9174605D02*
Y6749204D01*
X9225405D01*
Y6774604D01*
X9250805D01*
Y6825404D01*
X9225405D01*
Y6850804D01*
X9174605D01*
Y6825404D01*
X9149205D01*
Y6774604D01*
X9174605D01*
Y5974603D02*
Y5949203D01*
X9225405D01*
Y5974603D01*
X9250805D01*
Y6025403D01*
X9225405D01*
Y6050803D01*
X9174605D01*
Y6025403D01*
X9149205D01*
Y5974603D01*
X9174605D01*
X8974605Y6374603D02*
Y6349203D01*
X9025405D01*
Y6374603D01*
X9050805D01*
Y6425403D01*
X9025405D01*
Y6450803D01*
X8974605D01*
Y6425403D01*
X8949205D01*
Y6374603D01*
X8974605D01*
X8774605D02*
Y6349203D01*
X8825405D01*
Y6374603D01*
X8850805D01*
Y6425403D01*
X8825405D01*
Y6450803D01*
X8774605D01*
Y6425403D01*
X8749205D01*
Y6374603D01*
X8774605D01*
Y5974603D02*
Y5949203D01*
X8825405D01*
Y5974603D01*
X8850805D01*
Y6025403D01*
X8825405D01*
Y6050803D01*
X8774605D01*
Y6025403D01*
X8749205D01*
Y5974603D01*
X8774605D01*
X8674605Y6574604D02*
Y6549204D01*
X8725405D01*
Y6574604D01*
X8750805D01*
Y6625404D01*
X8725405D01*
Y6650804D01*
X8674605D01*
Y6625404D01*
X8649205D01*
Y6574604D01*
X8674605D01*
X8574605Y6374603D02*
Y6349203D01*
X8625405D01*
Y6374603D01*
X8650805D01*
Y6425403D01*
X8625405D01*
Y6450803D01*
X8574605D01*
Y6425403D01*
X8549205D01*
Y6374603D01*
X8574605D01*
X10300000Y8949200D02*
X10325400Y8974600D01*
X10350800D01*
X10325400Y9000000D01*
X10350800Y9025400D01*
X10325400D01*
X10300000Y9050800D01*
X10274600Y9025400D01*
X10249200D01*
X10274600Y9000000D01*
X10249200Y8974600D01*
X10274600D01*
X10300000Y8949200D01*
X9066921Y7620910D02*
X9092321Y7646310D01*
X9117721D01*
X9092321Y7671710D01*
X9117721Y7697110D01*
X9092321D01*
X9066921Y7722510D01*
X9041521Y7697110D01*
X9016121D01*
X9041521Y7671710D01*
X9016121Y7646310D01*
X9041521D01*
X9066921Y7620910D01*
X9800000Y6509200D02*
X9825400Y6534600D01*
X9850800D01*
X9825400Y6560000D01*
X9850800Y6585400D01*
X9825400D01*
X9800000Y6610800D01*
X9774600Y6585400D01*
X9749200D01*
X9774600Y6560000D01*
X9749200Y6534600D01*
X9774600D01*
X9800000Y6509200D01*
X8620000Y7319200D02*
X8645400Y7344600D01*
X8670800D01*
X8645400Y7370000D01*
X8670800Y7395400D01*
X8645400D01*
X8620000Y7420800D01*
X8594600Y7395400D01*
X8569200D01*
X8594600Y7370000D01*
X8569200Y7344600D01*
X8594600D01*
X8620000Y7319200D01*
X9060000Y7049200D02*
X9085400Y7074600D01*
X9110800D01*
X9085400Y7100000D01*
X9110800Y7125400D01*
X9085400D01*
X9060000Y7150800D01*
X9034600Y7125400D01*
X9009200D01*
X9034600Y7100000D01*
X9009200Y7074600D01*
X9034600D01*
X9060000Y7049200D01*
X9070000Y7309200D02*
X9095400Y7334600D01*
X9120800D01*
X9095400Y7360000D01*
X9120800Y7385400D01*
X9095400D01*
X9070000Y7410800D01*
X9044600Y7385400D01*
X9019200D01*
X9044600Y7360000D01*
X9019200Y7334600D01*
X9044600D01*
X9070000Y7309200D01*
X10580000Y8059200D02*
X10605400Y8084600D01*
X10630800D01*
X10605400Y8110000D01*
X10630800Y8135400D01*
X10605400D01*
X10580000Y8160800D01*
X10554600Y8135400D01*
X10529200D01*
X10554600Y8110000D01*
X10529200Y8084600D01*
X10554600D01*
X10580000Y8059200D01*
X10240000D02*
X10265400Y8084600D01*
X10290800D01*
X10265400Y8110000D01*
X10290800Y8135400D01*
X10265400D01*
X10240000Y8160800D01*
X10214600Y8135400D01*
X10189200D01*
X10214600Y8110000D01*
X10189200Y8084600D01*
X10214600D01*
X10240000Y8059200D01*
X9490000Y8669200D02*
X9515400Y8694600D01*
X9540800D01*
X9515400Y8720000D01*
X9540800Y8745400D01*
X9515400D01*
X9490000Y8770800D01*
X9464600Y8745400D01*
X9439200D01*
X9464600Y8720000D01*
X9439200Y8694600D01*
X9464600D01*
X9490000Y8669200D01*
Y8829200D02*
X9515400Y8854600D01*
X9540800D01*
X9515400Y8880000D01*
X9540800Y8905400D01*
X9515400D01*
X9490000Y8930800D01*
X9464600Y8905400D01*
X9439200D01*
X9464600Y8880000D01*
X9439200Y8854600D01*
X9464600D01*
X9490000Y8829200D01*
X9310000Y8629200D02*
X9335400Y8654600D01*
X9360800D01*
X9335400Y8680000D01*
X9360800Y8705400D01*
X9335400D01*
X9310000Y8730800D01*
X9284600Y8705400D01*
X9259200D01*
X9284600Y8680000D01*
X9259200Y8654600D01*
X9284600D01*
X9310000Y8629200D01*
X10520000Y8789200D02*
X10545400Y8814600D01*
X10570800D01*
X10545400Y8840000D01*
X10570800Y8865400D01*
X10545400D01*
X10520000Y8890800D01*
X10494600Y8865400D01*
X10469200D01*
X10494600Y8840000D01*
X10469200Y8814600D01*
X10494600D01*
X10520000Y8789200D01*
X11265000Y7914200D02*
X11290400Y7939600D01*
X11315800D01*
X11290400Y7965000D01*
X11315800Y7990400D01*
X11290400D01*
X11265000Y8015800D01*
X11239600Y7990400D01*
X11214200D01*
X11239600Y7965000D01*
X11214200Y7939600D01*
X11239600D01*
X11265000Y7914200D01*
X8820000Y8239200D02*
X8845400Y8264600D01*
X8870800D01*
X8845400Y8290000D01*
X8870800Y8315400D01*
X8845400D01*
X8820000Y8340800D01*
X8794600Y8315400D01*
X8769200D01*
X8794600Y8290000D01*
X8769200Y8264600D01*
X8794600D01*
X8820000Y8239200D01*
X8640000D02*
X8665400Y8264600D01*
X8690800D01*
X8665400Y8290000D01*
X8690800Y8315400D01*
X8665400D01*
X8640000Y8340800D01*
X8614600Y8315400D01*
X8589200D01*
X8614600Y8290000D01*
X8589200Y8264600D01*
X8614600D01*
X8640000Y8239200D01*
X9840000Y6049200D02*
X9865400Y6074600D01*
X9890800D01*
X9865400Y6100000D01*
X9890800Y6125400D01*
X9865400D01*
X9840000Y6150800D01*
X9814600Y6125400D01*
X9789200D01*
X9814600Y6100000D01*
X9789200Y6074600D01*
X9814600D01*
X9840000Y6049200D01*
X10170000D02*
X10195400Y6074600D01*
X10220800D01*
X10195400Y6100000D01*
X10220800Y6125400D01*
X10195400D01*
X10170000Y6150800D01*
X10144600Y6125400D01*
X10119200D01*
X10144600Y6100000D01*
X10119200Y6074600D01*
X10144600D01*
X10170000Y6049200D01*
X10150000Y7159200D02*
X10175400Y7184600D01*
X10200800D01*
X10175400Y7210000D01*
X10200800Y7235400D01*
X10175400D01*
X10150000Y7260800D01*
X10124600Y7235400D01*
X10099200D01*
X10124600Y7210000D01*
X10099200Y7184600D01*
X10124600D01*
X10150000Y7159200D01*
X11140000Y7179200D02*
X11165400Y7204600D01*
X11190800D01*
X11165400Y7230000D01*
X11190800Y7255400D01*
X11165400D01*
X11140000Y7280800D01*
X11114600Y7255400D01*
X11089200D01*
X11114600Y7230000D01*
X11089200Y7204600D01*
X11114600D01*
X11140000Y7179200D01*
X11287500Y6796700D02*
X11312900Y6822100D01*
X11338300D01*
X11312900Y6847500D01*
X11338300Y6872900D01*
X11312900D01*
X11287500Y6898300D01*
X11262100Y6872900D01*
X11236700D01*
X11262100Y6847500D01*
X11236700Y6822100D01*
X11262100D01*
X11287500Y6796700D01*
X11040000Y6759200D02*
X11065400Y6784600D01*
X11090800D01*
X11065400Y6810000D01*
X11090800Y6835400D01*
X11065400D01*
X11040000Y6860800D01*
X11014600Y6835400D01*
X10989200D01*
X11014600Y6810000D01*
X10989200Y6784600D01*
X11014600D01*
X11040000Y6759200D01*
X11055000Y7076700D02*
X11080400Y7102100D01*
X11105800D01*
X11080400Y7127500D01*
X11105800Y7152900D01*
X11080400D01*
X11055000Y7178300D01*
X11029600Y7152900D01*
X11004200D01*
X11029600Y7127500D01*
X11004200Y7102100D01*
X11029600D01*
X11055000Y7076700D01*
X9712500Y6969200D02*
X9737900Y6994600D01*
X9763300D01*
X9737900Y7020000D01*
X9763300Y7045400D01*
X9737900D01*
X9712500Y7070800D01*
X9687100Y7045400D01*
X9661700D01*
X9687100Y7020000D01*
X9661700Y6994600D01*
X9687100D01*
X9712500Y6969200D01*
X8760000Y7809200D02*
X8785400Y7834600D01*
X8810800D01*
X8785400Y7860000D01*
X8810800Y7885400D01*
X8785400D01*
X8760000Y7910800D01*
X8734600Y7885400D01*
X8709200D01*
X8734600Y7860000D01*
X8709200Y7834600D01*
X8734600D01*
X8760000Y7809200D01*
X9465000Y8416700D02*
X9490400Y8442100D01*
X9515800D01*
X9490400Y8467500D01*
X9515800Y8492900D01*
X9490400D01*
X9465000Y8518300D01*
X9439600Y8492900D01*
X9414200D01*
X9439600Y8467500D01*
X9414200Y8442100D01*
X9439600D01*
X9465000Y8416700D01*
X9732500Y8664200D02*
X9757900Y8689600D01*
X9783300D01*
X9757900Y8715000D01*
X9783300Y8740400D01*
X9757900D01*
X9732500Y8765800D01*
X9707100Y8740400D01*
X9681700D01*
X9707100Y8715000D01*
X9681700Y8689600D01*
X9707100D01*
X9732500Y8664200D01*
D68*
X9797300Y7919100D02*
G03*
X9797300Y7919100I-50800J0D01*
G01*
X9687300D02*
G03*
X9687300Y7919100I-50800J0D01*
G01*
X9907300D02*
G03*
X9907300Y7919100I-50800J0D01*
G01*
X9687300Y7809100D02*
G03*
X9687300Y7809100I-50800J0D01*
G01*
X9907300D02*
G03*
X9907300Y7809100I-50800J0D01*
G01*
X9797300D02*
G03*
X9797300Y7809100I-50800J0D01*
G01*
X9577300Y7919100D02*
G03*
X9577300Y7919100I-50800J0D01*
G01*
Y7699100D02*
G03*
X9577300Y7699100I-50800J0D01*
G01*
Y7809100D02*
G03*
X9577300Y7809100I-50800J0D01*
G01*
X9467300Y7699100D02*
G03*
X9467300Y7699100I-50800J0D01*
G01*
X9907300Y7479100D02*
G03*
X9907300Y7479100I-50800J0D01*
G01*
X9797300Y7699100D02*
G03*
X9797300Y7699100I-50800J0D01*
G01*
X9907300D02*
G03*
X9907300Y7699100I-50800J0D01*
G01*
X9687300Y7589100D02*
G03*
X9687300Y7589100I-50800J0D01*
G01*
X9907300D02*
G03*
X9907300Y7589100I-50800J0D01*
G01*
X9797300D02*
G03*
X9797300Y7589100I-50800J0D01*
G01*
X9687300Y7699100D02*
G03*
X9687300Y7699100I-50800J0D01*
G01*
X9467300Y7589100D02*
G03*
X9467300Y7589100I-50800J0D01*
G01*
X9577300D02*
G03*
X9577300Y7589100I-50800J0D01*
G01*
X9467300Y7479100D02*
G03*
X9467300Y7479100I-50800J0D01*
G01*
X9797300D02*
G03*
X9797300Y7479100I-50800J0D01*
G01*
X9687300D02*
G03*
X9687300Y7479100I-50800J0D01*
G01*
X9577300D02*
G03*
X9577300Y7479100I-50800J0D01*
G01*
X9118300Y8692500D02*
G03*
X9118300Y8692500I-50800J0D01*
G01*
X9008300Y8582500D02*
G03*
X9008300Y8582500I-50800J0D01*
G01*
Y8692500D02*
G03*
X9008300Y8692500I-50800J0D01*
G01*
X9118300Y8582500D02*
G03*
X9118300Y8582500I-50800J0D01*
G01*
X9467300Y7919100D02*
G03*
X9467300Y7919100I-50800J0D01*
G01*
Y7809100D02*
G03*
X9467300Y7809100I-50800J0D01*
G01*
%TF.MD5,a6e96fd631040353bc902d1c12d859b8*%
M02*
